<svg width="23" height="18" xmlns="http://www.w3.org/2000/svg" xmlns:xlink="http://www.w3.org/1999/xlink"><defs><path d="M22.5 7.203v.625c0 .26-.091.482-.273.664a.904.904 0 0 1-.665.274h-.312l-1.016 7.148a1.869 1.869 0 0 1-.644 1.152c-.352.3-.762.45-1.23.45H4.14a1.84 1.84 0 0 1-1.23-.45 1.869 1.869 0 0 1-.644-1.152L1.25 8.766H.937a.904.904 0 0 1-.664-.274A.904.904 0 0 1 0 7.828v-.625c0-.26.091-.482.273-.664a.904.904 0 0 1 .664-.273h2.618L7.735.523c.208-.286.481-.455.82-.507.338-.052.65.026.937.234.287.208.456.482.508.82.052.339-.026.651-.234.938L6.64 6.266h9.218l-3.125-4.258a1.223 1.223 0 0 1-.234-.938c.052-.338.221-.612.508-.82.286-.208.599-.286.937-.234.339.052.612.221.82.507l4.18 5.743h2.617c.26 0 .482.09.665.273a.904.904 0 0 1 .273.664zm-10.313 6.875V9.703a.904.904 0 0 0-.273-.664.904.904 0 0 0-.664-.273.904.904 0 0 0-.664.273.904.904 0 0 0-.274.664v4.375c0 .26.092.482.274.664a.904.904 0 0 0 .664.274c.26 0 .482-.092.664-.274a.904.904 0 0 0 .273-.664zm4.375 0V9.703a.904.904 0 0 0-.273-.664.904.904 0 0 0-.664-.273.904.904 0 0 0-.664.273.904.904 0 0 0-.274.664v4.375c0 .26.092.482.274.664a.904.904 0 0 0 .664.274c.26 0 .482-.092.664-.274a.904.904 0 0 0 .273-.664zm-8.75 0V9.703a.904.904 0 0 0-.273-.664.904.904 0 0 0-.664-.273.904.904 0 0 0-.664.273.904.904 0 0 0-.274.664v4.375c0 .26.092.482.274.664a.904.904 0 0 0 .664.274c.26 0 .482-.092.664-.274a.904.904 0 0 0 .273-.664z" id="a"/></defs><g fill="none" fill-rule="evenodd"><mask id="b" fill="#fff"><use xlink:href="#a"/></mask><use fill="#FFF" xlink:href="#a"/><g mask="url(#b)" fill="#FFF"><path d="M-12-15h48v48h-48z"/></g></g></svg>