<svg width="16" height="18" xmlns="http://www.w3.org/2000/svg" xmlns:xlink="http://www.w3.org/1999/xlink"><defs><path d="M13.333 1.667H9.85A2.509 2.509 0 0 0 7.5 0c-1.083 0-2 .7-2.35 1.667H1.667C.75 1.667 0 2.417 0 3.333V15c0 .917.75 1.667 1.667 1.667h11.666c.917 0 1.667-.75 1.667-1.667V3.333c0-.916-.75-1.666-1.667-1.666zm-5.833 0c.458 0 .833.375.833.833a.836.836 0 0 1-.833.833.836.836 0 0 1-.833-.833c0-.458.375-.833.833-.833zm1.667 11.666H3.333v-1.666h5.834v1.666zm2.5-3.333H3.333V8.333h8.334V10zm0-3.333H3.333V5h8.334v1.667z" id="a"/></defs><g fill="none" fill-rule="evenodd"><path d="M-2 0h20v20H-2z"/><g transform="translate(.5 .833)"><mask id="b" fill="#fff"><use xlink:href="#a"/></mask><use fill="#000" fill-rule="nonzero" xlink:href="#a"/><g mask="url(#b)" fill="#333"><path d="M-12.5-10.833h40v40h-40z"/></g></g></g></svg>