<svg width="24" height="24" xmlns="http://www.w3.org/2000/svg" xmlns:xlink="http://www.w3.org/1999/xlink"><defs><path d="M22.792 2.522l-1.33-1.33a4.05 4.05 0 0 0-5.738 0L1.886 15.037a.675.675 0 0 0-.183.338l-1.687 7.8a.676.676 0 0 0 .675.821.675.675 0 0 0 .145 0l7.797-1.688a.675.675 0 0 0 .337-.183L22.81 8.28a4.053 4.053 0 0 0-.017-5.758zM3.34 15.51L14.992 3.85l5.143 5.146L8.481 20.653 3.34 15.51zm-.556 1.35l4.347 4.35-5.56 1.212 1.213-5.561zM21.83 7.298l-.726.743-5.157-5.16.739-.74a2.7 2.7 0 0 1 3.817 0l1.323 1.325a2.702 2.702 0 0 1 .004 3.832z" id="a"/></defs><use fill="#5C6E85" xlink:href="#a"/></svg>