<svg width="24" height="24" xmlns="http://www.w3.org/2000/svg" xmlns:xlink="http://www.w3.org/1999/xlink"><defs><path d="M12 0c3.321 0 6.152 1.17 8.491 3.509C22.831 5.849 24 8.679 24 12c0 3.321-1.17 6.152-3.509 8.491C18.151 22.831 15.321 24 12 24c-3.321 0-6.152-1.17-8.491-3.509C1.169 18.151 0 15.321 0 12c0-3.321 1.17-6.152 3.509-8.491C5.849 1.169 8.679 0 12 0zm6.16 7.982c.036-.036.054-.09.054-.16 0-.108-.018-.18-.053-.215L16.5 6.321c-.036-.035-.107-.053-.214-.053-.072 0-.125.018-.161.053l-5.946 7.661a1246.81 1246.81 0 0 1-2.411-2.303c-.107-.108-.214-.161-.322-.161-.035 0-.107.053-.214.16L5.84 13.072c-.035.036-.053.108-.053.215 0 .071.018.125.053.16l.107.054 4.233 4.071c.107.108.196.161.267.161.072 0 .161-.053.268-.16l7.447-9.59z" id="a"/></defs><g fill="none" fill-rule="evenodd"><mask id="b" fill="#fff"><use xlink:href="#a"/></mask><use fill="#333" xlink:href="#a"/><g mask="url(#b)" fill="#5C6E85"><path d="M-12-12h48v48h-48z"/></g></g></svg>