<svg width="25" height="18" xmlns="http://www.w3.org/2000/svg" xmlns:xlink="http://www.w3.org/1999/xlink"><defs><path d="M24.375 13.125h-.625V9.606c0-.413-.2-.81-.55-1.103L19.296 5.25a2.08 2.08 0 0 0-1.324-.46H16.25V3.23c0-.862-.84-1.562-1.875-1.562h-10c-1.035 0-1.875.7-1.875 1.562v1.563H.312c-.171 0-.312.117-.312.26v.52c0 .144.14.261.313.261h10.624c.172 0 .313.118.313.26v.522c0 .143-.14.26-.313.26H1.563c-.172 0-.313.117-.313.26v.521c0 .143.14.26.313.26h8.124c.172 0 .313.118.313.261v.52c0 .144-.14.261-.313.261H.313c-.172 0-.313.118-.313.26v.522c0 .143.14.26.313.26h8.124c.172 0 .313.117.313.26v.521c0 .143-.14.26-.313.26H2.5v4.167c0 1.726 1.68 3.125 3.75 3.125 2.07 0 3.75-1.4 3.75-3.125h5c0 1.726 1.68 3.125 3.75 3.125 2.07 0 3.75-1.4 3.75-3.125h1.875c.344 0 .625-.234.625-.52v-1.042c0-.287-.281-.521-.625-.521zM6.25 16.771c-1.035 0-1.875-.7-1.875-1.563 0-.862.84-1.562 1.875-1.562 1.035 0 1.875.7 1.875 1.562 0 .863-.84 1.563-1.875 1.563zm12.5 0c-1.035 0-1.875-.7-1.875-1.563 0-.862.84-1.562 1.875-1.562 1.035 0 1.875.7 1.875 1.562 0 .863-.84 1.563-1.875 1.563zM21.875 10H16.25V6.354h1.723l3.902 3.252V10z" id="a"/></defs><g transform="translate(0 -1)" fill="none" fill-rule="evenodd"><mask id="b" fill="#fff"><use xlink:href="#a"/></mask><use fill="#333" fill-rule="nonzero" xlink:href="#a"/><g mask="url(#b)" fill="#5C6E85"><path d="M-12.5-10h50v40h-50z"/></g></g></svg>