<svg width="100" height="23" xmlns="http://www.w3.org/2000/svg"><g fill="#5C6E85" fill-rule="evenodd"><path d="M20.195 17.607c1.077-3.454 2.097-5.757 3.201-9.071.387-1.151.718-1.797.607-2.443-.193-1.067-.883-1.348-1.572-.45-.11.169-.221.31-.304.478-.414.702-.773 1.432-1.242 2.275-1.435 2.527-2.51 5.841-3.256 6.964-.966 1.573-2.318 1.264-2.732-.309-1.103.815-2.428-.056-2.373-1.488.028-1.264.359-2.893.524-4.184.221-1.601.663-5.673.635-7.864a3.792 3.792 0 0 0-.11-.674C13.324.083 12.579 0 11.945.448c-.359.253-.663.786-.828 1.488-.276 1.011-.359 2.107-.497 3.202-.083.73-1.27 7.246-1.545 7.779-.856 1.77-3.863-1.207-6.099-1.881-2.455-.703-4 .59-2.18 1.713 1.215.758 5.271 3.988 6.264 5.083.249.253.304.28.552.505.36.365.58.702.966 1.04 2.263 2.106 6.236 3.089 9.244 1.516.607-.337.745-.478 1.187-.927.717-.758.883-1.404 1.186-2.359m37.584 4.044h3.256l1.352-6.375c1.793-.225 1.849 1.04 2.125 2.415l.717 3.96h3.311l-.8-4.044c-.193-.983-.635-1.797-.993-2.19-.221-.225-.414-.337-.662-.534.524-.337.938-.477 1.352-.73.662-.393 1.297-.955 1.931-2.078.773-1.377 1.16-3.483.387-5.027-.773-1.601-2.043-1.91-4.305-1.91-2.07 0-4.112-.028-6.181 0l-.497 2.612h1.766l-2.76 13.901zm5.16-8.987l.993-4.886c1.435-.056 3.808-.421 2.76 2.78-.746 2.275-2.153 2.134-3.753 2.106zm25.497 8.987h2.897l1.021-4.634c1.242-.112 1.352.562 1.628 1.91l.524 2.724 3.008-.028-.414-2.078c-.441-1.966-.276-2.331-1.407-3.567l3.422-5.055-3.09.028c-.773 1.067-1.463 2.387-2.153 3.483h-.966c-.055-.927 1.6-7.47 1.849-9.296h-4.801l-.47 2.612h1.739c-.276 2.218-2.76 12.778-2.787 13.901m-54.83-4.297h-2.704l-.359 1.657h-2.18l2.842-13.873-5.215.056-.607 2.556h1.904l-2.897 13.9 8.333-.028"/><path d="M71.576 21.904c.248.112.552.168.938.224 2.677.281 4.032-.734 4.86-1.83.745-.983.99-1.736 1.294-2.944.441-1.629.69-3.51-.332-4.914-1.076-1.489-3.256-1.966-5.325-1.096-1.628.702-2.815 2.107-3.422 4.016-.304.983-.497 2.135-.386 3.23.138 1.573.883 2.752 2.373 3.314m.91-3.539c-.193-.674-.082-1.432.166-2.415.276-1.067 1.049-2.836 2.345-2.387 1.021.309 1.077 3.398 0 4.999-.827 1.264-2.097 1.46-2.51-.197M35.29 21.033c1.744 2.137 5.16.674 6.677.14l-.497-2.246c-1.352.477-3.338 1.488-3.863-.59 2.235.197 4.195-.533 5.298-2.5 2.76-4.942-4.111-6.711-7.064-2.751-1.02 1.376-1.545 2.836-1.573 4.746 0 0-.146 1.772 1.021 3.201m2.401-4.802c.166-1.151.718-2.443 1.738-2.668.828-.168 1.139.429.966 1.151-.075.314-.193.618-.469.9-.497.505-1.297.645-2.235.617m12.831-.731c.449 1.776 2.98 2.023 3.284 2.837.58 1.489-2.125 1.685-3.67.421l-1.049 2.247c.8 1.04 3.284 1.32 4.857.983 1.904-.393 2.98-1.966 3.063-3.875.055-.871-.138-1.32-.883-2.022-.662-.59-1.435-.759-2.042-1.18-.331-.225-.441-.28-.414-.702.055-.758.662-.73 1.573-.702l-.193 1.151 2.125-.028 1.38-4.325-2.595.028-.138.646c-1.296-.084-2.81-.126-3.835.702 0 0-2.01 1.651-1.463 3.82m30.409 5.785c.276.253.69.506 1.297.674.69.225 1.49.253 2.263.14.497-.056.855-.168 1.186-.252.414-.113.745-.253 1.16-.422.165-.084.358-.14.551-.252l-.497-2.219c-.938.309-4.304 2.05-3.945-1.91.22-2.274.91-3.791 3.394-3.482l-.193 1.095 2.097-.028 1.407-4.325h-2.566l-.194.759c-2.952-.31-4.552.533-5.794 2.246-1.021 1.376-1.49 3.342-1.352 5.336.082.983.414 1.966 1.186 2.64"/><path d="M43.816 21.651h2.842l1.683-8.172 1.6.028.801-2.528h-1.849l.635-3.23h-2.539l-.938 3.23h-1.518l-.496 2.5h1.297zm-28.808-7.863c.551-1.208.938-2.977 1.076-4.072.138-1.068-.166-1.517-1.27-1.685-.303-.057-.607-.028-.883.196-.413.309-.358.87-.524 1.798-.276 1.91-.855 3.96-.055 4.633.855.702 1.352-.168 1.656-.87m2.318 1.123c.883-1.488 1.986-4.1 1.434-4.97-.469-.703-1.766-1.068-2.152.055-.304.871-.58 2.219-.8 2.977-.248.815-.635 1.91-.304 2.472.58 1.01 1.435.084 1.822-.534M50.66 9.463h2.069l1.49-4.325h-2.677z"/></g></svg>