<svg width="245" height="53" xmlns="http://www.w3.org/2000/svg" xmlns:xlink="http://www.w3.org/1999/xlink"><defs><path id="a" d="M0 0h144.62v17.438H0z"/><path id="c" d="M.106.166h7.058v7.082H.106z"/><path id="e" d="M0 0h7.057v7.082H0z"/></defs><g fill="none" fill-rule="evenodd"><g transform="translate(96 23.194)"><mask id="b" fill="#fff"><use xlink:href="#a"/></mask><path d="M103.805 8.332l-5.794 8.828-5.713.103L100.38 4.9h-3.854V.284h11.88v16.864h-4.6V8.332zm-93.228.673L16.146.284h5.01v16.864h-4.601V8.332l-5.978 9.106-5.976-9.106v8.816H0V.284h5.01l5.567 8.72zM67.05 4.859v12.248h-4.601V.22h13.546v4.64H67.05zM31.941 0c4.752 0 8.612 3.874 8.612 8.641 0 4.779-3.85 8.641-8.612 8.641-4.75 0-8.61-3.873-8.61-8.64 0-4.756 3.872-8.642 8.61-8.642zm15 7.028h7.711V.278h4.601V17.12h-4.601v-5.474h-7.71v5.427h-4.6V.209h4.6v6.82zM84.903 0c4.752 0 8.611 3.874 8.611 8.641 0 4.779-3.848 8.641-8.61 8.641-4.75 0-8.61-3.873-8.61-8.64 0-4.756 3.87-8.642 8.61-8.642zm35.025 7.229l6.444 9.891h-5.494l-4.062-6.225-.738.863v5.362h-4.6V.278h4.6v4.335L119.793.21h6.032l-5.898 7.02zm18.955 7.896h-6.126l-.762 1.995h-4.973L133.497.232h4.621l6.502 16.888h-4.975l-.763-1.995zM27.932 8.641c0 2.215 1.804 4.024 4.01 4.024a4.012 4.012 0 0 0 4.01-4.024 4.012 4.012 0 0 0-4.01-4.024c-2.206 0-4.01 1.808-4.01 4.024zm52.96 0c0 2.215 1.804 4.024 4.01 4.024a4.01 4.01 0 0 0 4.01-4.024 4.012 4.012 0 0 0-4.01-4.024c-2.206 0-4.01 1.808-4.01 4.024zm53.624 1.867h2.606L135.809 7.1l-1.293 3.408z" fill="#212994" mask="url(#b)"/></g><path d="M43.31 30.525c3.14-3.16 6.24-6.36 9.38-9.52l-6.72-6.745.51-.512 9.761-9.796.51-.512 10.782 10.82-6.72 6.745 7.577 7.602c1.393-3.352 4.69-5.708 8.535-5.708 5.106 0 9.244 4.153 9.244 9.277 0 5.123-4.138 9.277-9.244 9.277a9.196 9.196 0 0 1-6.309-2.497l-.013-.013a8.949 8.949 0 0 1-.409-.409L56.752 25.08l-2.714 2.723 9.532 9.565-4.062 4.075-9.478-9.511-2.66 2.67 6.722 6.744-10.783 10.82-10.782-10.82 6.72-6.744-2.659-2.67-9.478 9.511-4.06-4.075 9.53-9.565-2.713-2.723-13.443 13.454a8.543 8.543 0 0 1-.409.41l-.012.012h-.001a9.195 9.195 0 0 1-6.308 2.497c-5.106 0-9.245-4.154-9.245-9.277 0-5.124 4.14-9.277 9.245-9.277 3.845 0 7.143 2.356 8.535 5.708l7.577-7.602-6.721-6.745L29.867 3.44l.511.512 9.761 9.796.51.512-6.72 6.745c3.139 3.16 6.24 6.36 9.38 9.52zm0 13.49l2.66-2.67-2.66-2.669-2.66 2.67 2.66 2.669zM9.693 28.49a3.678 3.678 0 0 0-3.672 3.685 3.678 3.678 0 0 0 3.672 3.684 3.678 3.678 0 0 0 3.671-3.684 3.678 3.678 0 0 0-3.671-3.685zm20.173-16.9l2.66 2.67-2.66 2.668-2.66-2.669 2.66-2.67zm47.058 16.9a3.678 3.678 0 0 1 3.671 3.685 3.678 3.678 0 0 1-3.671 3.684 3.678 3.678 0 0 1-3.672-3.684 3.678 3.678 0 0 1 3.672-3.685zm-20.173-16.9l-2.66 2.67 2.66 2.668 2.66-2.669-2.66-2.67zm11.433-7.825a.968.968 0 0 0-.965-.964h-1.776v3.121h.756V4.734h.76l.465 1.188h.832l-.535-1.331a.97.97 0 0 0 .463-.826m-.965.21h-1.02V3.56h1.02c.11 0 .205.094.205.206a.21.21 0 0 1-.205.21" fill="#212994"/><g transform="translate(63.079 .674)"><mask id="d" fill="#fff"><use xlink:href="#c"/></mask><path d="M3.634.166a3.535 3.535 0 0 1 3.53 3.54 3.536 3.536 0 0 1-3.53 3.542A3.535 3.535 0 0 1 .106 3.707c0-1.956 1.58-3.54 3.528-3.54m0 .73a2.805 2.805 0 0 1 2.801 2.81 2.806 2.806 0 0 1-2.8 2.81 2.805 2.805 0 0 1-2.8-2.81 2.804 2.804 0 0 1 2.8-2.81" fill="#212994" mask="url(#d)"/></g><path d="M242.207 23.124a.968.968 0 0 0-.965-.964h-1.776v3.121h.756v-1.187h.761l.464 1.187h.832l-.535-1.331a.97.97 0 0 0 .463-.826m-.965.21h-1.02v-.415h1.02c.11 0 .205.094.205.205a.21.21 0 0 1-.205.21" fill="#212994"/><g transform="translate(237.466 19.834)"><mask id="f" fill="#fff"><use xlink:href="#e"/></mask><path d="M3.528 0a3.535 3.535 0 0 1 3.53 3.54 3.536 3.536 0 0 1-3.53 3.542A3.535 3.535 0 0 1 0 3.541 3.535 3.535 0 0 1 3.528 0m0 .73A2.807 2.807 0 0 1 6.33 3.54a2.806 2.806 0 0 1-2.8 2.811 2.805 2.805 0 0 1-2.8-2.81 2.804 2.804 0 0 1 2.8-2.81" fill="#212994" mask="url(#f)"/></g></g></svg>