<svg width="178" height="99" xmlns="http://www.w3.org/2000/svg" xmlns:xlink="http://www.w3.org/1999/xlink"><defs><path id="a" d="M0 0h172.767v20.76H0z"/><path id="c" d="M.127.198h8.43v8.43H.128z"/><path id="e" d="M.127.198h8.43v8.43H.128z"/></defs><g fill="none" fill-rule="evenodd"><g transform="translate(0 77.802)"><mask id="b" fill="#fff"><use xlink:href="#a"/></mask><path d="M124.009 9.919l-6.922 10.509-6.825.123 9.655-14.716h-4.604V.338h14.192v20.076h-5.496V9.919zm-111.373.801L19.288.338h5.985v20.076h-5.496V9.919L12.636 20.76 5.496 9.919v10.495H0V.338h5.985l6.651 10.382zM80.1 5.785v14.58h-5.497V.262h16.183v5.523H80.1zM38.158 0c5.676 0 10.288 4.612 10.288 10.287a10.278 10.278 0 0 1-10.288 10.287c-5.674 0-10.286-4.611-10.286-10.287C27.872 4.626 32.497 0 38.158 0zm17.92 8.367h9.211V.331h5.497v20.05h-5.497v-6.517h-9.211v6.461h-5.496V.249h5.496v8.118zM101.427 0c5.676 0 10.287 4.612 10.287 10.287a10.277 10.277 0 0 1-10.287 10.287c-5.674 0-10.286-4.611-10.286-10.287C91.141 4.626 95.766 0 101.427 0zm41.842 8.606l7.698 11.775h-6.564l-4.852-7.411-.882 1.028v6.383h-5.496V.331h5.496v5.161l4.44-5.243h7.206l-7.046 8.357zm22.644 9.4h-7.318l-.911 2.375h-5.941L159.48.276H165l7.767 20.105h-5.943l-.911-2.375zM33.368 10.287a4.802 4.802 0 0 0 4.79 4.79 4.784 4.784 0 0 0 4.791-4.79c0-2.65-2.14-4.79-4.791-4.79a4.801 4.801 0 0 0-4.79 4.79zm63.269 0a4.801 4.801 0 0 0 4.79 4.79 4.784 4.784 0 0 0 4.791-4.79c0-2.65-2.14-4.79-4.791-4.79a4.8 4.8 0 0 0-4.79 4.79zm64.06 2.223h3.113l-1.568-4.058-1.545 4.058z" fill="#212994" mask="url(#b)"/></g><path d="M86.383 35.34c3.752-3.763 7.456-7.572 11.207-11.334l-8.03-8.03.61-.61 11.662-11.66.61-.61 12.88 12.88-8.03 8.03 9.053 9.05c1.664-3.99 5.602-6.796 10.196-6.796 6.1 0 11.044 4.944 11.044 11.044 0 6.1-4.944 11.044-11.044 11.044a11.007 11.007 0 0 1-7.536-2.972l-.016-.015a10.672 10.672 0 0 1-.488-.487l-16.06-16.017L99.2 32.1l11.387 11.386-4.852 4.852-11.323-11.323-3.177 3.178 8.03 8.03-12.882 12.88-12.881-12.88 8.029-8.03-3.177-3.178L67.03 48.337l-4.851-4.852L73.566 32.1l-3.242-3.242-16.06 16.017c-.156.168-.32.33-.487.487l-.015.015h-.001a11.005 11.005 0 0 1-7.536 2.972c-6.1 0-11.044-4.945-11.044-11.044 0-6.1 4.945-11.044 11.044-11.044 4.594 0 8.533 2.805 10.197 6.796l9.05-9.05-8.028-8.03 12.88-12.88.61.61 11.662 11.66.61.61-8.03 8.03c3.75 3.762 7.456 7.571 11.207 11.333zm0 16.058l3.178-3.177-3.178-3.178-3.177 3.178 3.177 3.177zm-40.158-18.48a4.386 4.386 0 1 0 0 8.772 4.386 4.386 0 0 0 0-8.772zm24.1-20.12l3.177 3.178-3.178 3.177-3.177-3.177 3.178-3.178zm56.216 20.12a4.386 4.386 0 1 1 0 8.772 4.386 4.386 0 0 1 0-8.772zm-24.1-20.12l-3.176 3.178 3.177 3.177 3.177-3.177-3.177-3.178zm13.658-9.316c0-.632-.521-1.148-1.153-1.148h-2.121V6.05h.903V4.636h.909l.554 1.414h.994l-.64-1.585c.33-.202.554-.568.554-.983m-1.153.25h-1.218v-.495h1.218c.132 0 .245.112.245.245a.25.25 0 0 1-.245.25" fill="#212994"/><g transform="translate(110 -.198)"><mask id="d" fill="#fff"><use xlink:href="#c"/></mask><path d="M4.342.198a4.216 4.216 0 1 1 0 8.431 4.216 4.216 0 0 1 0-8.431m0 .87a3.345 3.345 0 1 1 .002 6.69 3.345 3.345 0 0 1-.002-6.69" fill="#212994" mask="url(#d)"/></g><path d="M175.099 77.482c0-.632-.521-1.148-1.153-1.148h-2.121v3.716h.903v-1.414h.909l.554 1.414h.994l-.64-1.585c.33-.202.554-.568.554-.983m-1.153.25h-1.218v-.495h1.218c.132 0 .245.112.245.245a.25.25 0 0 1-.245.25" fill="#212994"/><g transform="translate(169 73.802)"><mask id="f" fill="#fff"><use xlink:href="#e"/></mask><path d="M4.342.198a4.216 4.216 0 1 1 0 8.431 4.216 4.216 0 0 1 0-8.431m0 .87a3.345 3.345 0 1 1 .002 6.69 3.345 3.345 0 0 1-.002-6.69" fill="#212994" mask="url(#f)"/></g></g></svg>