<svg width="16" height="16" xmlns="http://www.w3.org/2000/svg" xmlns:xlink="http://www.w3.org/1999/xlink"><defs><path d="M14.583 0l-.133.025L10 1.75 5 0 .3 1.583a.42.42 0 0 0-.3.4v12.6c0 .234.183.417.417.417l.133-.025L5 13.25 10 15l4.7-1.583a.42.42 0 0 0 .3-.4V.417A.413.413 0 0 0 14.583 0zM10 13.333l-5-1.758V1.667l5 1.758v9.908z" id="a"/></defs><g fill="none" fill-rule="evenodd"><path d="M-2-2h20v20H-2z"/><g transform="translate(.5 .5)"><mask id="b" fill="#fff"><use xlink:href="#a"/></mask><use fill="#000" fill-rule="nonzero" xlink:href="#a"/><g mask="url(#b)" fill="#333"><path d="M-12.5-12.5h40v40h-40z"/></g></g></g></svg>