<svg width="16" height="12" xmlns="http://www.w3.org/2000/svg" xmlns:xlink="http://www.w3.org/1999/xlink"><defs><path d="M12.667 2.667h-2V0H1.333C.6 0 0 .6 0 1.333v7.334h1.333c0 1.106.894 2 2 2 1.107 0 2-.894 2-2h4c0 1.106.894 2 2 2 1.107 0 2-.894 2-2h1.334V5.333l-2-2.666zm-9.334 7a1 1 0 1 1 0-2c.554 0 1 .446 1 1 0 .553-.446 1-1 1zm9-6l1.307 1.666h-2.973V3.667h1.666zm-1 6a1 1 0 1 1 0-2c.554 0 1 .446 1 1 0 .553-.446 1-1 1z" id="a"/></defs><g fill="none" fill-rule="evenodd"><path d="M0-2h16v16H0z"/><g transform="translate(.667 .667)"><mask id="b" fill="#fff"><use xlink:href="#a"/></mask><use fill="#000" fill-rule="nonzero" xlink:href="#a"/><g mask="url(#b)" fill="#333"><path d="M-8.667-10.667h32v32h-32z"/></g></g></g></svg>