<svg width="20" height="14" xmlns="http://www.w3.org/2000/svg" xmlns:xlink="http://www.w3.org/1999/xlink"><defs><path d="M15.833 3.333h-2.5V0H1.667C.75 0 0 .75 0 1.667v9.166h1.667c0 1.384 1.116 2.5 2.5 2.5 1.383 0 2.5-1.116 2.5-2.5h5c0 1.384 1.116 2.5 2.5 2.5 1.383 0 2.5-1.116 2.5-2.5h1.666V6.667l-2.5-3.334zm-11.666 8.75c-.692 0-1.25-.558-1.25-1.25a1.25 1.25 0 1 1 1.25 1.25zm11.25-7.5l1.633 2.084h-3.717V4.583h2.084zm-1.25 7.5c-.692 0-1.25-.558-1.25-1.25a1.25 1.25 0 1 1 1.25 1.25z" id="a"/></defs><g fill="none" fill-rule="evenodd"><path d="M0-3h20v20H0z"/><g transform="translate(.833 .333)"><mask id="b" fill="#fff"><use xlink:href="#a"/></mask><use fill="#000" fill-rule="nonzero" xlink:href="#a"/><g mask="url(#b)" fill="#333"><path d="M-10.833-13.333h40v40h-40z"/></g></g></g></svg>