<svg width="24" height="24" xmlns="http://www.w3.org/2000/svg" xmlns:xlink="http://www.w3.org/1999/xlink"><defs><path d="M12 1.5C6.15 1.5 1.5 6.15 1.5 12c0 3 1.2 5.7 3.15 7.5.3-.45.75-1.35 1.65-2.25.6-.6 1.35-1.2 1.95-1.8-.9-1.05-1.5-2.7-1.5-4.5 0-3.6 2.4-6.45 5.25-6.45s5.25 2.85 5.25 6.3c0 1.8-.6 3.45-1.65 4.65.6.45 1.35 1.2 1.95 1.8.9.9 1.5 1.8 1.65 2.25 2.1-1.8 3.3-4.5 3.3-7.5 0-5.85-4.65-10.5-10.5-10.5m3.75 9.45C15.75 8.25 14.1 6 12 6s-3.75 2.25-3.75 4.95 1.65 4.8 3.75 4.8 3.75-2.25 3.75-4.8M12 22.5c2.195 0 4.39-.732 6-2.049a25.433 25.433 0 0 0-1.61-2.195c-.585-.585-1.317-1.17-2.049-1.756-.731.439-1.463.732-2.341.732-.878 0-1.61-.293-2.341-.732a21.85 21.85 0 0 0-2.05 1.756c-.877.878-1.316 1.61-1.609 2.195 1.61 1.317 3.805 2.049 6 2.049m0 1.5C5.4 24 0 18.6 0 12S5.4 0 12 0s12 5.4 12 12-5.4 12-12 12" id="a"/></defs><g fill="none" fill-rule="evenodd"><mask id="b" fill="#fff"><use xlink:href="#a"/></mask><use fill="#333" xlink:href="#a"/><g mask="url(#b)" fill="#333"><path d="M-12-12h48v48h-48z"/></g></g></svg>